<mxfile host="Electron" agent="Mozilla/5.0 (Windows NT 10.0; Win64; x64) AppleWebKit/537.36 (KHTML, like Gecko) draw.io/26.0.9 Chrome/128.0.6613.186 Electron/32.2.5 Safari/537.36" version="26.0.9">
  <diagram name="PÃ¡gina-1" id="S4DuTbSTEtwV_ly8wl8z">
    <mxGraphModel dx="2514" dy="2162" grid="1" gridSize="10" guides="1" tooltips="1" connect="1" arrows="1" fold="1" page="1" pageScale="1" pageWidth="827" pageHeight="1169" math="0" shadow="0">
      <root>
        <mxCell id="0" />
        <mxCell id="1" parent="0" />
        <mxCell id="m0BrgAa3eSk7KKjNeB73-33" style="edgeStyle=orthogonalEdgeStyle;rounded=0;orthogonalLoop=1;jettySize=auto;html=1;entryX=1;entryY=0.5;entryDx=0;entryDy=0;" edge="1" parent="1" source="NIqZHeDaQvGw6LNS0srn-1" target="m0BrgAa3eSk7KKjNeB73-29">
          <mxGeometry relative="1" as="geometry" />
        </mxCell>
        <mxCell id="m0BrgAa3eSk7KKjNeB73-74" value="" style="edgeStyle=orthogonalEdgeStyle;rounded=0;orthogonalLoop=1;jettySize=auto;html=1;" edge="1" parent="1" source="NIqZHeDaQvGw6LNS0srn-1" target="m0BrgAa3eSk7KKjNeB73-73">
          <mxGeometry relative="1" as="geometry" />
        </mxCell>
        <mxCell id="NIqZHeDaQvGw6LNS0srn-1" value="&lt;font size=&quot;3&quot;&gt;Clientes&lt;/font&gt;" style="rounded=0;whiteSpace=wrap;html=1;" parent="1" vertex="1">
          <mxGeometry x="160" y="200" width="120" height="60" as="geometry" />
        </mxCell>
        <mxCell id="m0BrgAa3eSk7KKjNeB73-6" value="cpf(pk)" style="text;html=1;align=center;verticalAlign=middle;resizable=0;points=[];autosize=1;strokeColor=none;fillColor=none;" vertex="1" parent="1">
          <mxGeometry x="245" y="310" width="60" height="30" as="geometry" />
        </mxCell>
        <mxCell id="m0BrgAa3eSk7KKjNeB73-7" style="edgeStyle=orthogonalEdgeStyle;rounded=0;orthogonalLoop=1;jettySize=auto;html=1;entryX=-0.019;entryY=0.478;entryDx=0;entryDy=0;entryPerimeter=0;endArrow=oval;endFill=1;" edge="1" parent="1" source="NIqZHeDaQvGw6LNS0srn-1" target="m0BrgAa3eSk7KKjNeB73-6">
          <mxGeometry relative="1" as="geometry">
            <Array as="points">
              <mxPoint x="220" y="324" />
            </Array>
          </mxGeometry>
        </mxCell>
        <mxCell id="m0BrgAa3eSk7KKjNeB73-11" value="nome" style="text;html=1;align=center;verticalAlign=middle;resizable=0;points=[];autosize=1;strokeColor=none;fillColor=none;" vertex="1" parent="1">
          <mxGeometry x="245" y="350" width="50" height="30" as="geometry" />
        </mxCell>
        <mxCell id="m0BrgAa3eSk7KKjNeB73-12" value="idade" style="text;html=1;align=center;verticalAlign=middle;resizable=0;points=[];autosize=1;strokeColor=none;fillColor=none;" vertex="1" parent="1">
          <mxGeometry x="245" y="388" width="50" height="30" as="geometry" />
        </mxCell>
        <mxCell id="m0BrgAa3eSk7KKjNeB73-14" value="estadoCivil" style="text;html=1;align=center;verticalAlign=middle;resizable=0;points=[];autosize=1;strokeColor=none;fillColor=none;" vertex="1" parent="1">
          <mxGeometry x="245" y="430" width="80" height="30" as="geometry" />
        </mxCell>
        <mxCell id="m0BrgAa3eSk7KKjNeB73-32" style="edgeStyle=orthogonalEdgeStyle;rounded=0;orthogonalLoop=1;jettySize=auto;html=1;entryX=0;entryY=0.5;entryDx=0;entryDy=0;" edge="1" parent="1" source="m0BrgAa3eSk7KKjNeB73-16" target="m0BrgAa3eSk7KKjNeB73-29">
          <mxGeometry relative="1" as="geometry" />
        </mxCell>
        <mxCell id="m0BrgAa3eSk7KKjNeB73-16" value="Telefones" style="whiteSpace=wrap;html=1;" vertex="1" parent="1">
          <mxGeometry x="-240" y="200" width="120" height="60" as="geometry" />
        </mxCell>
        <mxCell id="m0BrgAa3eSk7KKjNeB73-18" value="ID(PK)" style="text;html=1;align=center;verticalAlign=middle;resizable=0;points=[];autosize=1;strokeColor=none;fillColor=none;" vertex="1" parent="1">
          <mxGeometry x="-160" y="310" width="60" height="30" as="geometry" />
        </mxCell>
        <mxCell id="m0BrgAa3eSk7KKjNeB73-19" style="edgeStyle=orthogonalEdgeStyle;rounded=0;orthogonalLoop=1;jettySize=auto;html=1;entryX=-0.002;entryY=0.52;entryDx=0;entryDy=0;entryPerimeter=0;endArrow=oval;endFill=1;" edge="1" parent="1" source="m0BrgAa3eSk7KKjNeB73-16" target="m0BrgAa3eSk7KKjNeB73-18">
          <mxGeometry relative="1" as="geometry" />
        </mxCell>
        <mxCell id="m0BrgAa3eSk7KKjNeB73-20" value="DDD" style="text;html=1;align=center;verticalAlign=middle;resizable=0;points=[];autosize=1;strokeColor=none;fillColor=none;" vertex="1" parent="1">
          <mxGeometry x="-155" y="350" width="50" height="30" as="geometry" />
        </mxCell>
        <mxCell id="m0BrgAa3eSk7KKjNeB73-21" value="numero" style="text;html=1;align=center;verticalAlign=middle;resizable=0;points=[];autosize=1;strokeColor=none;fillColor=none;" vertex="1" parent="1">
          <mxGeometry x="-160" y="388" width="60" height="30" as="geometry" />
        </mxCell>
        <mxCell id="m0BrgAa3eSk7KKjNeB73-22" style="edgeStyle=orthogonalEdgeStyle;rounded=0;orthogonalLoop=1;jettySize=auto;html=1;entryX=-0.02;entryY=0.598;entryDx=0;entryDy=0;entryPerimeter=0;endArrow=oval;endFill=1;" edge="1" parent="1" source="m0BrgAa3eSk7KKjNeB73-16" target="m0BrgAa3eSk7KKjNeB73-20">
          <mxGeometry relative="1" as="geometry" />
        </mxCell>
        <mxCell id="m0BrgAa3eSk7KKjNeB73-23" style="edgeStyle=orthogonalEdgeStyle;rounded=0;orthogonalLoop=1;jettySize=auto;html=1;entryX=-0.014;entryY=0.46;entryDx=0;entryDy=0;entryPerimeter=0;endArrow=oval;endFill=1;" edge="1" parent="1" source="m0BrgAa3eSk7KKjNeB73-16" target="m0BrgAa3eSk7KKjNeB73-21">
          <mxGeometry relative="1" as="geometry" />
        </mxCell>
        <mxCell id="m0BrgAa3eSk7KKjNeB73-24" value="telefone (FK)" style="text;html=1;align=center;verticalAlign=middle;resizable=0;points=[];autosize=1;strokeColor=none;fillColor=none;" vertex="1" parent="1">
          <mxGeometry x="240" y="478" width="90" height="30" as="geometry" />
        </mxCell>
        <mxCell id="m0BrgAa3eSk7KKjNeB73-25" style="edgeStyle=orthogonalEdgeStyle;rounded=0;orthogonalLoop=1;jettySize=auto;html=1;entryX=0.008;entryY=0.566;entryDx=0;entryDy=0;entryPerimeter=0;endArrow=oval;endFill=1;exitX=0.5;exitY=1;exitDx=0;exitDy=0;" edge="1" parent="1" source="NIqZHeDaQvGw6LNS0srn-1" target="m0BrgAa3eSk7KKjNeB73-11">
          <mxGeometry relative="1" as="geometry">
            <mxPoint x="230" y="270" as="sourcePoint" />
            <mxPoint x="254" y="334" as="targetPoint" />
            <Array as="points">
              <mxPoint x="220" y="367" />
            </Array>
          </mxGeometry>
        </mxCell>
        <mxCell id="m0BrgAa3eSk7KKjNeB73-26" style="edgeStyle=orthogonalEdgeStyle;rounded=0;orthogonalLoop=1;jettySize=auto;html=1;entryX=0;entryY=0.522;entryDx=0;entryDy=0;entryPerimeter=0;endArrow=oval;endFill=1;exitX=0.5;exitY=1;exitDx=0;exitDy=0;" edge="1" parent="1" source="NIqZHeDaQvGw6LNS0srn-1" target="m0BrgAa3eSk7KKjNeB73-12">
          <mxGeometry relative="1" as="geometry">
            <mxPoint x="220" y="290" as="sourcePoint" />
            <mxPoint x="245" y="397" as="targetPoint" />
            <Array as="points">
              <mxPoint x="220" y="404" />
            </Array>
          </mxGeometry>
        </mxCell>
        <mxCell id="m0BrgAa3eSk7KKjNeB73-27" style="edgeStyle=orthogonalEdgeStyle;rounded=0;orthogonalLoop=1;jettySize=auto;html=1;entryX=-0.004;entryY=0.533;entryDx=0;entryDy=0;entryPerimeter=0;endArrow=oval;endFill=1;" edge="1" parent="1" source="NIqZHeDaQvGw6LNS0srn-1" target="m0BrgAa3eSk7KKjNeB73-14">
          <mxGeometry relative="1" as="geometry" />
        </mxCell>
        <mxCell id="m0BrgAa3eSk7KKjNeB73-28" style="edgeStyle=orthogonalEdgeStyle;rounded=0;orthogonalLoop=1;jettySize=auto;html=1;entryX=0.008;entryY=0.567;entryDx=0;entryDy=0;entryPerimeter=0;endArrow=oval;endFill=1;" edge="1" parent="1" source="NIqZHeDaQvGw6LNS0srn-1" target="m0BrgAa3eSk7KKjNeB73-24">
          <mxGeometry relative="1" as="geometry" />
        </mxCell>
        <mxCell id="m0BrgAa3eSk7KKjNeB73-29" value="" style="rhombus;whiteSpace=wrap;html=1;" vertex="1" parent="1">
          <mxGeometry y="210" width="40" height="40" as="geometry" />
        </mxCell>
        <mxCell id="m0BrgAa3eSk7KKjNeB73-34" value="1:n" style="text;html=1;align=center;verticalAlign=middle;resizable=0;points=[];autosize=1;strokeColor=none;fillColor=none;" vertex="1" parent="1">
          <mxGeometry x="-105" y="200" width="40" height="30" as="geometry" />
        </mxCell>
        <mxCell id="m0BrgAa3eSk7KKjNeB73-35" value="1:3" style="text;html=1;align=center;verticalAlign=middle;resizable=0;points=[];autosize=1;strokeColor=none;fillColor=none;" vertex="1" parent="1">
          <mxGeometry x="110" y="200" width="40" height="30" as="geometry" />
        </mxCell>
        <mxCell id="m0BrgAa3eSk7KKjNeB73-101" style="edgeStyle=orthogonalEdgeStyle;rounded=0;orthogonalLoop=1;jettySize=auto;html=1;entryX=1;entryY=0.5;entryDx=0;entryDy=0;" edge="1" parent="1" source="m0BrgAa3eSk7KKjNeB73-36" target="m0BrgAa3eSk7KKjNeB73-84">
          <mxGeometry relative="1" as="geometry" />
        </mxCell>
        <mxCell id="m0BrgAa3eSk7KKjNeB73-36" value="Produtos" style="whiteSpace=wrap;html=1;" vertex="1" parent="1">
          <mxGeometry x="1080" y="200" width="120" height="60" as="geometry" />
        </mxCell>
        <mxCell id="m0BrgAa3eSk7KKjNeB73-37" value="ID(pk)" style="text;html=1;align=center;verticalAlign=middle;resizable=0;points=[];autosize=1;strokeColor=none;fillColor=none;" vertex="1" parent="1">
          <mxGeometry x="1165" y="328" width="60" height="30" as="geometry" />
        </mxCell>
        <mxCell id="m0BrgAa3eSk7KKjNeB73-38" style="edgeStyle=orthogonalEdgeStyle;rounded=0;orthogonalLoop=1;jettySize=auto;html=1;entryX=0.008;entryY=0.511;entryDx=0;entryDy=0;entryPerimeter=0;endArrow=oval;endFill=1;" edge="1" parent="1" source="m0BrgAa3eSk7KKjNeB73-36" target="m0BrgAa3eSk7KKjNeB73-37">
          <mxGeometry relative="1" as="geometry" />
        </mxCell>
        <mxCell id="m0BrgAa3eSk7KKjNeB73-39" value="codigoBarra" style="text;html=1;align=center;verticalAlign=middle;resizable=0;points=[];autosize=1;strokeColor=none;fillColor=none;" vertex="1" parent="1">
          <mxGeometry x="1160" y="368" width="90" height="30" as="geometry" />
        </mxCell>
        <mxCell id="m0BrgAa3eSk7KKjNeB73-40" value="descricao" style="text;html=1;align=center;verticalAlign=middle;resizable=0;points=[];autosize=1;strokeColor=none;fillColor=none;" vertex="1" parent="1">
          <mxGeometry x="1160" y="446" width="70" height="30" as="geometry" />
        </mxCell>
        <mxCell id="m0BrgAa3eSk7KKjNeB73-41" value="valorVenda" style="text;html=1;align=center;verticalAlign=middle;resizable=0;points=[];autosize=1;strokeColor=none;fillColor=none;" vertex="1" parent="1">
          <mxGeometry x="1160" y="486" width="80" height="30" as="geometry" />
        </mxCell>
        <mxCell id="m0BrgAa3eSk7KKjNeB73-42" value="valorCompra" style="text;html=1;align=center;verticalAlign=middle;resizable=0;points=[];autosize=1;strokeColor=none;fillColor=none;" vertex="1" parent="1">
          <mxGeometry x="1160" y="528" width="90" height="30" as="geometry" />
        </mxCell>
        <mxCell id="m0BrgAa3eSk7KKjNeB73-44" style="edgeStyle=orthogonalEdgeStyle;rounded=0;orthogonalLoop=1;jettySize=auto;html=1;entryX=0;entryY=0.441;entryDx=0;entryDy=0;entryPerimeter=0;endArrow=oval;endFill=1;" edge="1" parent="1" source="m0BrgAa3eSk7KKjNeB73-36" target="m0BrgAa3eSk7KKjNeB73-39">
          <mxGeometry relative="1" as="geometry" />
        </mxCell>
        <mxCell id="m0BrgAa3eSk7KKjNeB73-45" style="edgeStyle=orthogonalEdgeStyle;rounded=0;orthogonalLoop=1;jettySize=auto;html=1;entryX=0.007;entryY=0.476;entryDx=0;entryDy=0;entryPerimeter=0;endArrow=oval;endFill=1;" edge="1" parent="1" source="m0BrgAa3eSk7KKjNeB73-36" target="m0BrgAa3eSk7KKjNeB73-40">
          <mxGeometry relative="1" as="geometry" />
        </mxCell>
        <mxCell id="m0BrgAa3eSk7KKjNeB73-46" style="edgeStyle=orthogonalEdgeStyle;rounded=0;orthogonalLoop=1;jettySize=auto;html=1;entryX=0.012;entryY=0.473;entryDx=0;entryDy=0;entryPerimeter=0;endArrow=oval;endFill=1;" edge="1" parent="1" source="m0BrgAa3eSk7KKjNeB73-36" target="m0BrgAa3eSk7KKjNeB73-41">
          <mxGeometry relative="1" as="geometry" />
        </mxCell>
        <mxCell id="m0BrgAa3eSk7KKjNeB73-47" style="edgeStyle=orthogonalEdgeStyle;rounded=0;orthogonalLoop=1;jettySize=auto;html=1;entryX=-0.011;entryY=0.524;entryDx=0;entryDy=0;entryPerimeter=0;endArrow=oval;endFill=1;" edge="1" parent="1" source="m0BrgAa3eSk7KKjNeB73-36" target="m0BrgAa3eSk7KKjNeB73-42">
          <mxGeometry relative="1" as="geometry" />
        </mxCell>
        <mxCell id="m0BrgAa3eSk7KKjNeB73-54" value="emEstoque" style="text;html=1;align=center;verticalAlign=middle;resizable=0;points=[];autosize=1;strokeColor=none;fillColor=none;" vertex="1" parent="1">
          <mxGeometry x="1160" y="566" width="80" height="30" as="geometry" />
        </mxCell>
        <mxCell id="m0BrgAa3eSk7KKjNeB73-55" style="edgeStyle=orthogonalEdgeStyle;rounded=0;orthogonalLoop=1;jettySize=auto;html=1;entryX=0.006;entryY=0.606;entryDx=0;entryDy=0;entryPerimeter=0;endArrow=oval;endFill=1;" edge="1" parent="1" source="m0BrgAa3eSk7KKjNeB73-36" target="m0BrgAa3eSk7KKjNeB73-54">
          <mxGeometry relative="1" as="geometry" />
        </mxCell>
        <mxCell id="m0BrgAa3eSk7KKjNeB73-75" value="" style="edgeStyle=orthogonalEdgeStyle;rounded=0;orthogonalLoop=1;jettySize=auto;html=1;" edge="1" parent="1" source="m0BrgAa3eSk7KKjNeB73-58" target="m0BrgAa3eSk7KKjNeB73-73">
          <mxGeometry relative="1" as="geometry" />
        </mxCell>
        <mxCell id="m0BrgAa3eSk7KKjNeB73-86" style="edgeStyle=orthogonalEdgeStyle;rounded=0;orthogonalLoop=1;jettySize=auto;html=1;entryX=0;entryY=0.5;entryDx=0;entryDy=0;" edge="1" parent="1" source="m0BrgAa3eSk7KKjNeB73-58" target="m0BrgAa3eSk7KKjNeB73-85">
          <mxGeometry relative="1" as="geometry" />
        </mxCell>
        <mxCell id="m0BrgAa3eSk7KKjNeB73-58" value="Compra" style="whiteSpace=wrap;html=1;" vertex="1" parent="1">
          <mxGeometry x="550" y="200" width="120" height="60" as="geometry" />
        </mxCell>
        <mxCell id="m0BrgAa3eSk7KKjNeB73-60" style="edgeStyle=orthogonalEdgeStyle;rounded=0;orthogonalLoop=1;jettySize=auto;html=1;entryX=0.006;entryY=0.467;entryDx=0;entryDy=0;entryPerimeter=0;endArrow=oval;endFill=1;" edge="1" parent="1" source="m0BrgAa3eSk7KKjNeB73-58" target="m0BrgAa3eSk7KKjNeB73-67">
          <mxGeometry relative="1" as="geometry">
            <mxPoint x="630" y="302.01" as="targetPoint" />
          </mxGeometry>
        </mxCell>
        <mxCell id="m0BrgAa3eSk7KKjNeB73-63" value="data" style="text;html=1;align=center;verticalAlign=middle;resizable=0;points=[];autosize=1;strokeColor=none;fillColor=none;" vertex="1" parent="1">
          <mxGeometry x="630" y="330" width="50" height="30" as="geometry" />
        </mxCell>
        <mxCell id="m0BrgAa3eSk7KKjNeB73-64" value="valor" style="text;html=1;align=center;verticalAlign=middle;resizable=0;points=[];autosize=1;strokeColor=none;fillColor=none;" vertex="1" parent="1">
          <mxGeometry x="630" y="370" width="50" height="30" as="geometry" />
        </mxCell>
        <mxCell id="m0BrgAa3eSk7KKjNeB73-65" value="itens (FK)" style="text;html=1;align=center;verticalAlign=middle;resizable=0;points=[];autosize=1;strokeColor=none;fillColor=none;" vertex="1" parent="1">
          <mxGeometry x="630" y="406" width="80" height="30" as="geometry" />
        </mxCell>
        <mxCell id="m0BrgAa3eSk7KKjNeB73-67" value="ID (pk)" style="text;html=1;align=center;verticalAlign=middle;resizable=0;points=[];autosize=1;strokeColor=none;fillColor=none;" vertex="1" parent="1">
          <mxGeometry x="630" y="288" width="60" height="30" as="geometry" />
        </mxCell>
        <mxCell id="m0BrgAa3eSk7KKjNeB73-68" style="edgeStyle=orthogonalEdgeStyle;rounded=0;orthogonalLoop=1;jettySize=auto;html=1;entryX=-0.006;entryY=0.533;entryDx=0;entryDy=0;entryPerimeter=0;endArrow=oval;endFill=1;" edge="1" parent="1" source="m0BrgAa3eSk7KKjNeB73-58" target="m0BrgAa3eSk7KKjNeB73-63">
          <mxGeometry relative="1" as="geometry" />
        </mxCell>
        <mxCell id="m0BrgAa3eSk7KKjNeB73-69" style="edgeStyle=orthogonalEdgeStyle;rounded=0;orthogonalLoop=1;jettySize=auto;html=1;entryX=-0.011;entryY=0.505;entryDx=0;entryDy=0;entryPerimeter=0;endArrow=oval;endFill=1;" edge="1" parent="1" source="m0BrgAa3eSk7KKjNeB73-58" target="m0BrgAa3eSk7KKjNeB73-65">
          <mxGeometry relative="1" as="geometry" />
        </mxCell>
        <mxCell id="m0BrgAa3eSk7KKjNeB73-72" style="edgeStyle=orthogonalEdgeStyle;rounded=0;orthogonalLoop=1;jettySize=auto;html=1;entryX=0.006;entryY=0.476;entryDx=0;entryDy=0;entryPerimeter=0;endArrow=oval;endFill=1;" edge="1" parent="1" source="m0BrgAa3eSk7KKjNeB73-58" target="m0BrgAa3eSk7KKjNeB73-64">
          <mxGeometry relative="1" as="geometry" />
        </mxCell>
        <mxCell id="m0BrgAa3eSk7KKjNeB73-73" value="" style="rhombus;whiteSpace=wrap;html=1;" vertex="1" parent="1">
          <mxGeometry x="380" y="205" width="60" height="50" as="geometry" />
        </mxCell>
        <mxCell id="m0BrgAa3eSk7KKjNeB73-76" value="1:n" style="text;html=1;align=center;verticalAlign=middle;resizable=0;points=[];autosize=1;strokeColor=none;fillColor=none;" vertex="1" parent="1">
          <mxGeometry x="300" y="198" width="40" height="30" as="geometry" />
        </mxCell>
        <mxCell id="m0BrgAa3eSk7KKjNeB73-83" value="1:1" style="text;html=1;align=center;verticalAlign=middle;resizable=0;points=[];autosize=1;strokeColor=none;fillColor=none;" vertex="1" parent="1">
          <mxGeometry x="500" y="198" width="40" height="30" as="geometry" />
        </mxCell>
        <mxCell id="m0BrgAa3eSk7KKjNeB73-87" style="edgeStyle=orthogonalEdgeStyle;rounded=0;orthogonalLoop=1;jettySize=auto;html=1;entryX=1;entryY=0.5;entryDx=0;entryDy=0;" edge="1" parent="1" source="m0BrgAa3eSk7KKjNeB73-84" target="m0BrgAa3eSk7KKjNeB73-85">
          <mxGeometry relative="1" as="geometry" />
        </mxCell>
        <mxCell id="m0BrgAa3eSk7KKjNeB73-84" value="Itens da Compra" style="whiteSpace=wrap;html=1;" vertex="1" parent="1">
          <mxGeometry x="847" y="200" width="120" height="60" as="geometry" />
        </mxCell>
        <mxCell id="m0BrgAa3eSk7KKjNeB73-85" value="" style="rhombus;whiteSpace=wrap;html=1;" vertex="1" parent="1">
          <mxGeometry x="730" y="210" width="50" height="40" as="geometry" />
        </mxCell>
        <mxCell id="m0BrgAa3eSk7KKjNeB73-88" value="ID (pk)" style="text;html=1;align=center;verticalAlign=middle;resizable=0;points=[];autosize=1;strokeColor=none;fillColor=none;" vertex="1" parent="1">
          <mxGeometry x="930" y="130" width="60" height="30" as="geometry" />
        </mxCell>
        <mxCell id="m0BrgAa3eSk7KKjNeB73-89" style="edgeStyle=orthogonalEdgeStyle;rounded=0;orthogonalLoop=1;jettySize=auto;html=1;entryX=0;entryY=0.433;entryDx=0;entryDy=0;entryPerimeter=0;endArrow=oval;endFill=1;" edge="1" parent="1" source="m0BrgAa3eSk7KKjNeB73-84" target="m0BrgAa3eSk7KKjNeB73-88">
          <mxGeometry relative="1" as="geometry" />
        </mxCell>
        <mxCell id="m0BrgAa3eSk7KKjNeB73-91" value="nome" style="text;html=1;align=center;verticalAlign=middle;resizable=0;points=[];autosize=1;strokeColor=none;fillColor=none;" vertex="1" parent="1">
          <mxGeometry x="1170" y="406" width="50" height="30" as="geometry" />
        </mxCell>
        <mxCell id="m0BrgAa3eSk7KKjNeB73-92" style="edgeStyle=orthogonalEdgeStyle;rounded=0;orthogonalLoop=1;jettySize=auto;html=1;entryX=0.02;entryY=0.6;entryDx=0;entryDy=0;entryPerimeter=0;endArrow=oval;endFill=1;" edge="1" parent="1" source="m0BrgAa3eSk7KKjNeB73-36" target="m0BrgAa3eSk7KKjNeB73-91">
          <mxGeometry relative="1" as="geometry" />
        </mxCell>
        <mxCell id="m0BrgAa3eSk7KKjNeB73-93" value="nomeProduto" style="text;html=1;align=center;verticalAlign=middle;resizable=0;points=[];autosize=1;strokeColor=none;fillColor=none;" vertex="1" parent="1">
          <mxGeometry x="930" y="50" width="100" height="30" as="geometry" />
        </mxCell>
        <mxCell id="m0BrgAa3eSk7KKjNeB73-94" value="quantidade" style="text;html=1;align=center;verticalAlign=middle;resizable=0;points=[];autosize=1;strokeColor=none;fillColor=none;" vertex="1" parent="1">
          <mxGeometry x="930" y="10" width="80" height="30" as="geometry" />
        </mxCell>
        <mxCell id="m0BrgAa3eSk7KKjNeB73-95" style="edgeStyle=orthogonalEdgeStyle;rounded=0;orthogonalLoop=1;jettySize=auto;html=1;entryX=-0.012;entryY=0.4;entryDx=0;entryDy=0;entryPerimeter=0;endArrow=oval;endFill=1;" edge="1" parent="1" source="m0BrgAa3eSk7KKjNeB73-84" target="m0BrgAa3eSk7KKjNeB73-94">
          <mxGeometry relative="1" as="geometry" />
        </mxCell>
        <mxCell id="m0BrgAa3eSk7KKjNeB73-98" value="1:n" style="text;html=1;align=center;verticalAlign=middle;resizable=0;points=[];autosize=1;strokeColor=none;fillColor=none;" vertex="1" parent="1">
          <mxGeometry x="680" y="200" width="40" height="30" as="geometry" />
        </mxCell>
        <mxCell id="m0BrgAa3eSk7KKjNeB73-99" value="n:1" style="text;html=1;align=center;verticalAlign=middle;resizable=0;points=[];autosize=1;strokeColor=none;fillColor=none;" vertex="1" parent="1">
          <mxGeometry x="787" y="200" width="40" height="30" as="geometry" />
        </mxCell>
        <mxCell id="m0BrgAa3eSk7KKjNeB73-100" style="edgeStyle=orthogonalEdgeStyle;rounded=0;orthogonalLoop=1;jettySize=auto;html=1;entryX=-0.002;entryY=0.373;entryDx=0;entryDy=0;entryPerimeter=0;endArrow=oval;endFill=1;" edge="1" parent="1" source="m0BrgAa3eSk7KKjNeB73-84" target="m0BrgAa3eSk7KKjNeB73-93">
          <mxGeometry relative="1" as="geometry" />
        </mxCell>
        <mxCell id="m0BrgAa3eSk7KKjNeB73-106" value="IDproduto (FK)" style="text;html=1;align=center;verticalAlign=middle;resizable=0;points=[];autosize=1;strokeColor=none;fillColor=none;" vertex="1" parent="1">
          <mxGeometry x="930" y="88" width="100" height="30" as="geometry" />
        </mxCell>
        <mxCell id="m0BrgAa3eSk7KKjNeB73-107" style="edgeStyle=orthogonalEdgeStyle;rounded=0;orthogonalLoop=1;jettySize=auto;html=1;entryX=-0.003;entryY=0.5;entryDx=0;entryDy=0;entryPerimeter=0;endArrow=oval;endFill=1;" edge="1" parent="1" source="m0BrgAa3eSk7KKjNeB73-84" target="m0BrgAa3eSk7KKjNeB73-106">
          <mxGeometry relative="1" as="geometry" />
        </mxCell>
        <mxCell id="m0BrgAa3eSk7KKjNeB73-109" value="valor" style="text;html=1;align=center;verticalAlign=middle;resizable=0;points=[];autosize=1;strokeColor=none;fillColor=none;" vertex="1" parent="1">
          <mxGeometry x="930" y="-30" width="50" height="30" as="geometry" />
        </mxCell>
        <mxCell id="m0BrgAa3eSk7KKjNeB73-110" style="edgeStyle=orthogonalEdgeStyle;rounded=0;orthogonalLoop=1;jettySize=auto;html=1;entryX=0;entryY=0.379;entryDx=0;entryDy=0;entryPerimeter=0;endArrow=oval;endFill=1;" edge="1" parent="1" source="m0BrgAa3eSk7KKjNeB73-84" target="m0BrgAa3eSk7KKjNeB73-109">
          <mxGeometry relative="1" as="geometry" />
        </mxCell>
      </root>
    </mxGraphModel>
  </diagram>
</mxfile>
